# xmcd CD database file
#
# Track frame offsets:
#	150
#	19365
#	39157
#	55130
#	82372
#	98257
#	103082
#	130377
#	159447
#	177917
#	197070
#	225367
#	245660
#	265412
#	300430
#	316255
#
# Disc length: 4394 seconds
#
# Revision: 0
# Processed by: cddbd v1.5.1PL0 Copyright (c) Steve Scherf et al.
# Submitted via: CDex 1.50beta10
#
DISCID=cc112810
DTITLE=Mus - To stop being hungry
DYEAR=2004
DGENRE=New Age
TTITLE0=La Vuelta
TTITLE1=Escuela Cruda
TTITLE2=La Piel
TTITLE3=La Sosiega
TTITLE4=Diariu
TTITLE5=Vida D'o
TTITLE6=Soleda
TTITLE7=Aurelia
TTITLE8=Al Debalu
TTITLE9=Al Oeste de la vivisoria
TTITLE10=Casi Ensin Zarrar Los Queyos
TTITLE11=Encofraos
TTITLE12=Dexase Apagar
TTITLE13=La D'amor
TTITLE14=Faise Trade
TTITLE15=Diariu-Lmaxe Accidental
EXTD=YEAR: 2004
EXTT0=
EXTT1=
EXTT2=
EXTT3=
EXTT4=
EXTT5=
EXTT6=
EXTT7=
EXTT8=
EXTT9=
EXTT10=
EXTT11=
EXTT12=
EXTT13=
EXTT14=
EXTT15=
PLAYORDER=
